<svg width="32" height="32" viewBox="0 0 32 32" fill="none" xmlns="http://www.w3.org/2000/svg">
<mask id="path-1-inside-1_6_13" fill="white">
<path d="M20.1333 16.9026C23.0222 15.2615 24.8889 12.0205 24.8889 9.02564C24.8889 4.75897 21.1111 0 16 0C10.8889 0 7.11111 4.75897 7.11111 9.02564C7.11111 12.0205 8.97778 15.2615 11.8667 16.9026C5.02222 18.5846 0 24.3692 0 31.1795C0 31.6308 0.4 32 0.888889 32H31.1111C31.6 32 32 31.6308 32 31.1795C32 24.3692 26.9778 18.5846 20.1333 16.9026ZM8.88889 9.02564C8.88889 4.8 12.6667 1.64103 16 1.64103C19.3333 1.64103 23.1111 4.8 23.1111 9.02564C23.1111 13.2513 19.3333 16.4103 16 16.4103C12.6667 16.4103 8.88889 13.2513 8.88889 9.02564ZM1.82222 30.359C2.26667 23.5077 8.48889 18.0513 16 18.0513C23.5111 18.0513 29.7333 23.5077 30.1778 30.359H1.82222Z"/>
</mask>
<path d="M20.1333 16.9026L19.1455 15.1636L14.7762 17.6455L19.656 18.8448L20.1333 16.9026ZM11.8667 16.9026L12.344 18.8448L17.2238 17.6455L12.8545 15.1636L11.8667 16.9026ZM1.82222 30.359L-0.173583 30.2295L-0.311722 32.359H1.82222V30.359ZM30.1778 30.359V32.359H32.3117L32.1736 30.2295L30.1778 30.359ZM21.1212 18.6416C24.6084 16.6607 26.8889 12.7709 26.8889 9.02564H22.8889C22.8889 11.2701 21.4361 13.8624 19.1455 15.1636L21.1212 18.6416ZM26.8889 9.02564C26.8889 6.33075 25.7131 3.60476 23.8338 1.55959C21.9371 -0.504441 19.2052 -2 16 -2V2C17.9059 2 19.6184 2.88393 20.8884 4.26606C22.1758 5.66704 22.8889 7.45387 22.8889 9.02564H26.8889ZM16 -2C12.7948 -2 10.0629 -0.504441 8.16622 1.55959C6.28692 3.60476 5.11111 6.33075 5.11111 9.02564H9.11111C9.11111 7.45387 9.8242 5.66704 11.1116 4.26606C12.3816 2.88393 14.0941 2 16 2V-2ZM5.11111 9.02564C5.11111 12.7709 7.39163 16.6607 10.8788 18.6416L12.8545 15.1636C10.5639 13.8624 9.11111 11.2701 9.11111 9.02564H5.11111ZM11.3894 14.9604C3.76796 16.8333 -2 23.3331 -2 31.1795H2C2 25.4053 6.27649 20.3359 12.344 18.8448L11.3894 14.9604ZM-2 31.1795C-2 32.8831 -0.550827 34 0.888889 34V30C1.35083 30 2 30.3785 2 31.1795H-2ZM0.888889 34H31.1111V30H0.888889V34ZM31.1111 34C32.5508 34 34 32.8831 34 31.1795H30C30 30.3785 30.6492 30 31.1111 30V34ZM34 31.1795C34 23.3331 28.232 16.8333 20.6106 14.9604L19.656 18.8448C25.7235 20.3359 30 25.4053 30 31.1795H34ZM10.8889 9.02564C10.8889 7.53093 11.5551 6.18348 12.5857 5.18553C13.638 4.16664 14.9356 3.64103 16 3.64103V-0.358974C13.7311 -0.358974 11.4732 0.694903 9.8032 2.31191C8.11161 3.94985 6.88889 6.29472 6.88889 9.02564H10.8889ZM16 3.64103C17.0644 3.64103 18.362 4.16664 19.4143 5.18553C20.4449 6.18348 21.1111 7.53093 21.1111 9.02564H25.1111C25.1111 6.29472 23.8884 3.94985 22.1968 2.31191C20.5268 0.694903 18.2689 -0.358974 16 -0.358974V3.64103ZM21.1111 9.02564C21.1111 10.5204 20.4449 11.8678 19.4143 12.8658C18.362 13.8846 17.0644 14.4103 16 14.4103V18.4103C18.2689 18.4103 20.5268 17.3564 22.1968 15.7394C23.8884 14.1014 25.1111 11.7566 25.1111 9.02564H21.1111ZM16 14.4103C14.9356 14.4103 13.638 13.8846 12.5857 12.8658C11.5551 11.8678 10.8889 10.5204 10.8889 9.02564H6.88889C6.88889 11.7566 8.11161 14.1014 9.8032 15.7394C11.4732 17.3564 13.7311 18.4103 16 18.4103V14.4103ZM3.81803 30.4884C4.18574 24.82 9.40697 20.0513 16 20.0513V16.0513C7.57081 16.0513 0.347592 22.1954 -0.173583 30.2295L3.81803 30.4884ZM16 20.0513C22.593 20.0513 27.8143 24.82 28.182 30.4884L32.1736 30.2295C31.6524 22.1954 24.4292 16.0513 16 16.0513V20.0513ZM30.1778 28.359H1.82222V32.359H30.1778V28.359Z" fill="#E84058" mask="url(#path-1-inside-1_6_13)"/>
</svg>
