<svg width="13" height="13" viewBox="0 0 13 13" fill="none" xmlns="http://www.w3.org/2000/svg">
<path d="M10.7917 1.77017C10.7917 1.12136 10.2536 0.583333 9.60483 0.583333H3.39517C2.74636 0.583333 2.20833 1.12136 2.20833 1.77017V11.2298C2.20833 11.8786 2.74636 12.4167 3.39517 12.4167H9.60483C10.2542 12.4167 10.7917 11.8781 10.7917 11.2288V1.77017ZM3.39517 0.5H9.60483C10.3026 0.5 10.875 1.07239 10.875 1.77017V11.2298C10.875 11.9274 10.3028 12.5 9.60375 12.5H3.39517C2.69759 12.5 2.125 11.9278 2.125 11.2288V1.77017C2.125 1.07239 2.69739 0.5 3.39517 0.5Z" stroke="#E84058"/>
<path d="M4.33604 10.8333C4.63519 10.8333 4.87771 10.5908 4.87771 10.2917C4.87771 9.99251 4.63519 9.75 4.33604 9.75C4.03688 9.75 3.79437 9.99251 3.79437 10.2917C3.79437 10.5908 4.03688 10.8333 4.33604 10.8333Z" fill="#E84058"/>
<path d="M6.50271 10.8333C6.80187 10.8333 7.04438 10.5908 7.04438 10.2917C7.04438 9.99251 6.80187 9.75 6.50271 9.75C6.20356 9.75 5.96104 9.99251 5.96104 10.2917C5.96104 10.5908 6.20356 10.8333 6.50271 10.8333Z" fill="#E84058"/>
<path d="M8.66937 10.8333C8.96853 10.8333 9.21104 10.5908 9.21104 10.2917C9.21104 9.99251 8.96853 9.75 8.66937 9.75C8.37022 9.75 8.12771 9.99251 8.12771 10.2917C8.12771 10.5908 8.37022 10.8333 8.66937 10.8333Z" fill="#E84058"/>
<path d="M4.33604 8.66668C4.63519 8.66668 4.87771 8.42416 4.87771 8.12501C4.87771 7.82586 4.63519 7.58334 4.33604 7.58334C4.03688 7.58334 3.79437 7.82586 3.79437 8.12501C3.79437 8.42416 4.03688 8.66668 4.33604 8.66668Z" fill="#E84058"/>
<path d="M6.50271 8.66668C6.80187 8.66668 7.04438 8.42416 7.04438 8.12501C7.04438 7.82586 6.80187 7.58334 6.50271 7.58334C6.20356 7.58334 5.96104 7.82586 5.96104 8.12501C5.96104 8.42416 6.20356 8.66668 6.50271 8.66668Z" fill="#E84058"/>
<path d="M8.66937 8.66668C8.96853 8.66668 9.21104 8.42416 9.21104 8.12501C9.21104 7.82586 8.96853 7.58334 8.66937 7.58334C8.37022 7.58334 8.12771 7.82586 8.12771 8.12501C8.12771 8.42416 8.37022 8.66668 8.66937 8.66668Z" fill="#E84058"/>
<path d="M4.33604 6.49999C4.63519 6.49999 4.87771 6.25748 4.87771 5.95832C4.87771 5.65917 4.63519 5.41666 4.33604 5.41666C4.03688 5.41666 3.79437 5.65917 3.79437 5.95832C3.79437 6.25748 4.03688 6.49999 4.33604 6.49999Z" fill="#E84058"/>
<path d="M6.50271 6.49999C6.80187 6.49999 7.04438 6.25748 7.04438 5.95832C7.04438 5.65917 6.80187 5.41666 6.50271 5.41666C6.20356 5.41666 5.96104 5.65917 5.96104 5.95832C5.96104 6.25748 6.20356 6.49999 6.50271 6.49999Z" fill="#E84058"/>
<path d="M8.66937 6.49999C8.96853 6.49999 9.21104 6.25748 9.21104 5.95832C9.21104 5.65917 8.96853 5.41666 8.66937 5.41666C8.37022 5.41666 8.12771 5.65917 8.12771 5.95832C8.12771 6.25748 8.37022 6.49999 8.66937 6.49999Z" fill="#E84058"/>
<path d="M8.12771 4.33332H4.87771C4.28025 4.33332 3.79437 3.84745 3.79437 3.24999C3.79437 2.65253 4.28025 2.16666 4.87771 2.16666H8.12771C8.72516 2.16666 9.21104 2.65253 9.21104 3.24999C9.21104 3.84745 8.72462 4.33332 8.12771 4.33332V4.33332Z" fill="#E84058"/>
</svg>
