<svg width="32" height="32" viewBox="0 0 32 32" fill="none" xmlns="http://www.w3.org/2000/svg">
<path d="M26.6641 9.33301H5.33073C3.85797 9.33301 2.66406 10.5269 2.66406 11.9997V25.333C2.66406 26.8058 3.85797 27.9997 5.33073 27.9997H26.6641C28.1368 27.9997 29.3307 26.8058 29.3307 25.333V11.9997C29.3307 10.5269 28.1368 9.33301 26.6641 9.33301Z" stroke="#E84058" stroke-width="2" stroke-linecap="round" stroke-linejoin="round"/>
<path d="M21.3307 28V6.66667C21.3307 5.95942 21.0498 5.28115 20.5497 4.78105C20.0496 4.28095 19.3713 4 18.6641 4H13.3307C12.6235 4 11.9452 4.28095 11.4451 4.78105C10.945 5.28115 10.6641 5.95942 10.6641 6.66667V28" stroke="#E84058" stroke-width="2" stroke-linecap="round" stroke-linejoin="round"/>
</svg>
