<svg width="18" height="18" viewBox="0 0 18 18" fill="none" xmlns="http://www.w3.org/2000/svg">
<g clip-path="url(#clip0_17_22)">
<path d="M6 0H2C0.89543 0 0 0.89543 0 2V6C0 7.10457 0.89543 8 2 8H6C7.10457 8 8 7.10457 8 6V2C8 0.89543 7.10457 0 6 0Z" fill="#E84058"/>
<path d="M6 10H2C0.89543 10 0 10.8954 0 12V16C0 17.1046 0.89543 18 2 18H6C7.10457 18 8 17.1046 8 16V12C8 10.8954 7.10457 10 6 10Z" fill="#E84058"/>
<path d="M16 0H12C10.8954 0 10 0.89543 10 2V6C10 7.10457 10.8954 8 12 8H16C17.1046 8 18 7.10457 18 6V2C18 0.89543 17.1046 0 16 0Z" fill="#E84058"/>
<path d="M16 10H12C10.8954 10 10 10.8954 10 12V16C10 17.1046 10.8954 18 12 18H16C17.1046 18 18 17.1046 18 16V12C18 10.8954 17.1046 10 16 10Z" fill="#E84058"/>
</g>
<defs>
<clipPath id="clip0_17_22">
<rect width="18" height="18" fill="white"/>
</clipPath>
</defs>
</svg>
