<svg width="32" height="32" viewBox="0 0 32 32" fill="none" xmlns="http://www.w3.org/2000/svg">
<g clip-path="url(#clip0_6_8)">
<path d="M29.5446 29.5446C29.6577 29.4315 29.7143 29.2976 29.7931 29.1429V9.71429C29.7143 9.55952 29.6577 9.4256 29.5446 9.3125C29.4315 9.1994 29.2976 9.14286 29.1429 9.14286H9.71429C9.55952 9.14286 9.4256 9.1994 9.3125 9.3125C9.1994 9.4256 9.14286 9.55952 9.14286 9.71429V29.1429C9.14286 29.2976 9.1994 29.4315 9.3125 29.5446C9.4256 29.6577 9.55952 29.7143 9.71429 29.7931H29.1429C29.2976 29.7143 29.4315 29.6577 29.5446 29.5446ZM31.1607 7.69643C31.7202 8.25595 32 8.92857 32 9.71429V29.1429C32 29.9286 31.7202 30.6012 31.1607 31.1607C30.6012 31.7202 29.9286 32 29.1429 32H9.71429C8.92857 32 8.25595 31.7202 7.69643 31.1607C7.1369 30.6012 6.85714 29.9286 6.85714 29.1429V9.71429C6.85714 8.92857 7.1369 8.25595 7.69643 7.69643C8.25595 7.1369 8.92857 6.85714 9.71429 6.85714H29.1429C29.9286 6.85714 30.6012 7.1369 31.1607 7.69643ZM24.3036 0.839286C24.8631 1.39881 25.1429 2.07143 25.1429 2.85714V5.71429H22.8571V2.85714C22.8571 2.70238 22.8006 2.56845 22.6875 2.45536C22.5744 2.34226 22.4405 2.28571 22.2857 2.2069H2.85714C2.70238 2.28571 2.56845 2.34226 2.45536 2.45536C2.34226 2.56845 2.28571 2.70238 2.2069 2.85714V22.2857C2.28571 22.4405 2.34226 22.5744 2.45536 22.6875C2.56845 22.8006 2.70238 22.8571 2.85714 22.8571H5.71429V25.1429H2.85714C2.07143 25.1429 1.39881 24.8631 0.839286 24.3036C0.279762 23.744 0 23.0714 0 22.2857V2.85714C0 2.07143 0.279762 1.39881 0.839286 0.839286C1.39881 0.279762 2.07143 0 2.85714 0H22.2857C23.0714 0 23.744 0.279762 24.3036 0.839286Z" fill="#E84058"/>
</g>
<defs>
<clipPath id="clip0_6_8">
<rect width="32" height="32" fill="white"/>
</clipPath>
</defs>
</svg>
