<svg width="32" height="32" viewBox="0 0 32 32" fill="none" xmlns="http://www.w3.org/2000/svg">
<path d="M27.7217 6.14911C27.0408 5.46777 26.2321 4.92729 25.3422 4.55855C24.4522 4.1898 23.4984 4 22.535 4C21.5717 4 20.6178 4.1898 19.728 4.55855C18.838 4.92729 18.0294 5.46777 17.3484 6.14911L15.935 7.56244L14.5217 6.14911C13.1461 4.77351 11.2804 4.00072 9.33505 4.00072C7.38968 4.00072 5.52397 4.77351 4.14839 6.14911C2.7728 7.52469 2 9.39039 2 11.3358C2 13.2811 2.7728 15.1468 4.14839 16.5224L5.56172 17.9357L15.935 28.3091L26.3084 17.9357L27.7217 16.5224C28.403 15.8415 28.9436 15.0328 29.3122 14.1429C29.681 13.253 29.8708 12.2991 29.8708 11.3358C29.8708 10.3725 29.681 9.41857 29.3122 8.52863C28.9436 7.63868 28.403 6.83011 27.7217 6.14911Z" stroke="#E84058" stroke-width="2" stroke-linecap="round" stroke-linejoin="round"/>
</svg>
