<svg width="84" height="84" viewBox="0 0 84 84" fill="none" xmlns="http://www.w3.org/2000/svg">
<circle cx="42" cy="42" r="40.5" stroke="white" stroke-width="3"/>
<path d="M50.75 57.75V54.25C50.75 52.3935 50.0125 50.613 48.6997 49.3003C47.387 47.9875 45.6065 47.25 43.75 47.25H29.75C27.8935 47.25 26.113 47.9875 24.8003 49.3003C23.4875 50.613 22.75 52.3935 22.75 54.25V57.75" stroke="white" stroke-width="3" stroke-linecap="round" stroke-linejoin="round"/>
<path d="M36.75 40.25C40.616 40.25 43.75 37.116 43.75 33.25C43.75 29.384 40.616 26.25 36.75 26.25C32.884 26.25 29.75 29.384 29.75 33.25C29.75 37.116 32.884 40.25 36.75 40.25Z" stroke="white" stroke-width="3" stroke-linecap="round" stroke-linejoin="round"/>
<path d="M61.25 57.75V54.25C61.2488 52.699 60.7326 51.1923 59.7824 49.9665C58.8322 48.7407 57.5017 47.8652 56 47.4775" stroke="white" stroke-width="3" stroke-linecap="round" stroke-linejoin="round"/>
<path d="M49 26.4775C50.5057 26.863 51.8403 27.7387 52.7934 28.9665C53.7464 30.1943 54.2637 31.7044 54.2637 33.2587C54.2637 34.813 53.7464 36.3231 52.7934 37.5509C51.8403 38.7788 50.5057 39.6545 49 40.04" stroke="white" stroke-width="3" stroke-linecap="round" stroke-linejoin="round"/>
</svg>
