<svg width="32" height="32" viewBox="0 0 32 32" fill="none" xmlns="http://www.w3.org/2000/svg">
<circle cx="16" cy="16" r="16" fill="#E84058"/>
<g clip-path="url(#clip0_329_334)">
<path d="M15.9979 13.9037C14.8437 13.9037 13.9018 14.8456 13.9018 15.9998C13.9018 17.154 14.8437 18.096 15.9979 18.096C17.1521 18.096 18.094 17.154 18.094 15.9998C18.094 14.8456 17.1521 13.9037 15.9979 13.9037ZM22.2846 15.9998C22.2846 15.1318 22.2925 14.2717 22.2437 13.4052C22.195 12.3988 21.9654 11.5056 21.2295 10.7697C20.492 10.0322 19.6004 9.80421 18.594 9.75546C17.726 9.70672 16.8659 9.71458 15.9995 9.71458C15.1315 9.71458 14.2713 9.70672 13.4049 9.75546C12.3985 9.80421 11.5054 10.0338 10.7695 10.7697C10.032 11.5072 9.80397 12.3988 9.75522 13.4052C9.70647 14.2732 9.71433 15.1334 9.71433 15.9998C9.71433 16.8663 9.70647 17.728 9.75522 18.5944C9.80397 19.6008 10.0335 20.494 10.7695 21.2299C11.5069 21.9674 12.3985 22.1954 13.4049 22.2442C14.2729 22.2929 15.133 22.2851 15.9995 22.2851C16.8675 22.2851 17.7276 22.2929 18.594 22.2442C19.6004 22.1954 20.4936 21.9659 21.2295 21.2299C21.967 20.4924 22.195 19.6008 22.2437 18.5944C22.294 17.728 22.2846 16.8678 22.2846 15.9998ZM15.9979 19.225C14.2131 19.225 12.7728 17.7846 12.7728 15.9998C12.7728 14.215 14.2131 12.7746 15.9979 12.7746C17.7826 12.7746 19.223 14.215 19.223 15.9998C19.223 17.7846 17.7826 19.225 15.9979 19.225ZM19.3551 13.3958C18.9384 13.3958 18.6019 13.0593 18.6019 12.6426C18.6019 12.2258 18.9384 11.8893 19.3551 11.8893C19.7718 11.8893 20.1083 12.2258 20.1083 12.6426C20.1084 12.7415 20.089 12.8395 20.0512 12.931C20.0134 13.0224 19.9579 13.1055 19.888 13.1754C19.818 13.2454 19.7349 13.3009 19.6435 13.3387C19.552 13.3765 19.454 13.3959 19.3551 13.3958Z" fill="white"/>
</g>
<defs>
<clipPath id="clip0_329_334">
<rect width="13.7143" height="13.7143" fill="white" transform="translate(9.14258 9.14258)"/>
</clipPath>
</defs>
</svg>
