<?xml version="1.0" encoding="utf-8"?>
<svg version="1.1" xmlns:xlink="http://www.w3.org/1999/xlink" width="15px" height="21px" xmlns="http://www.w3.org/2000/svg">
  <g transform="matrix(1 0 0 1 -112 -5291 )">
    <path d="M 10.151367187499966 9.474609375  C 10.883789062499913 8.791015624999625  11.249999999999961 7.966145833333832  11.249999999999961 7.000000000000375  C 11.249999999999961 6.033854166665792  10.883789062499913 5.208984375  10.151367187499966 4.525390624999625  C 9.418945312500018 3.8417968750003744  8.535156250000055 3.4999999999996256  7.500000000000075 3.4999999999996256  C 6.464843749999945 3.4999999999996256  5.581054687499981 3.8417968750003744  4.848632812500034 4.525390624999625  C 4.116210937500087 5.208984375  3.7500000000000373 6.033854166665792  3.7500000000000373 7.000000000000375  C 3.7500000000000373 7.966145833333832  4.116210937500087 8.791015624999625  4.848632812500034 9.474609375  C 5.581054687499981 10.158203125000375  6.464843749999945 10.5  7.500000000000075 10.5  C 8.535156250000055 10.5  9.418945312500018 10.158203125000375  10.151367187499966 9.474609375  Z M 12.802734375000007 2.05078125  C 14.267578125000053 3.4179687499996256  15 5.067708333333458  15 7.000000000000375  C 15 7.993489583334208  14.8388671874999 8.809244791666167  14.516601562500002 9.447265624999625  L 9.18457031249997 20.029296874999627  C 9.028320312499988 20.330078125000373  8.79638671874992 20.56705729166654  8.488769531249922 20.740234375000373  C 8.181152343750073 20.913411458334206  7.851562500000073 21  7.500000000000075 21  C 7.148437499999926 21  6.818847656249927 20.913411458334206  6.511230468750078 20.740234375000373  C 6.20361328125008 20.56705729166654  5.9765624999999805 20.330078125000373  5.83007812499993 20.029296874999627  L 0.48339843749999833 9.447265624999625  C 0.16113281250009975 8.809244791666167  0 7.993489583334208  0 7.000000000000375  C 0 5.067708333333458  0.7324218749999475 3.4179687499996256  2.1972656249999925 2.05078125  C 3.6621093750000377 0.6835937500003746  5.429687499999965 0  7.500000000000075 0  C 9.570312500000036 0  11.337890624999961 0.6835937500003746  12.802734375000007 2.05078125  Z " fill-rule="nonzero" fill="#e84058" stroke="none" transform="matrix(1 0 0 1 112 5291 )" />
  </g>
</svg>