<svg width="194" height="47" viewBox="0 0 194 47" fill="none" xmlns="http://www.w3.org/2000/svg">
<path d="M50.3717 15.407L20.3465 32.9248L0 21.1774V35.2391L20.3465 46.9899L40.693 35.2391V28.259C41.1775 22.5802 46.3336 18.4159 50.3717 15.407Z" fill="#E84058"/>
<path d="M47.1697 8.0067C42.9317 9.95501 38.399 10.0804 33.3106 7.4849L20.3459 0L0.0400391 11.7271L20.3459 23.4509L47.1697 8.0067Z" fill="#E84058"/>
<path d="M76.5316 19.9236C76.1347 19.5178 75.6676 19.1872 75.1528 18.9478C74.6038 18.6934 74.0121 18.544 73.4082 18.5073V18.2701C73.886 18.1999 74.346 18.0389 74.7633 17.7958C75.1772 17.5565 75.5473 17.2482 75.8575 16.8843C76.1693 16.5187 76.4147 16.1012 76.5824 15.6509C76.7583 15.1912 76.8479 14.7031 76.8467 14.2109C76.8575 13.5276 76.7199 12.8502 76.4435 12.2253C76.1784 11.6451 75.7817 11.1346 75.285 10.7344C74.7341 10.3033 74.1048 9.98335 73.4319 9.79244C72.6274 9.55892 71.7931 9.44476 70.9555 9.4536H62.6387V28.486H71.1791C72.1045 28.4975 73.0263 28.3684 73.9129 28.1032C74.669 27.8783 75.3742 27.509 75.9896 27.0155C76.5551 26.5549 77.0043 25.9675 77.3006 25.301C77.6122 24.5889 77.767 23.8181 77.7546 23.0409C77.7554 22.4505 77.6403 21.8657 77.4158 21.3197C77.2081 20.8006 76.9022 20.3266 76.5147 19.9236H76.5316ZM66.6192 12.5099H69.9392C70.7303 12.4584 71.5147 12.6836 72.1581 13.1469C72.417 13.3642 72.6221 13.6385 72.7573 13.9483C72.8925 14.2581 72.9541 14.595 72.9373 14.9326C72.9542 15.2778 72.8854 15.6219 72.737 15.934C72.5886 16.2462 72.3653 16.5168 72.087 16.7216C71.5178 17.1373 70.6935 17.3451 69.614 17.3451H66.6226L66.6192 12.5099ZM72.795 24.7351C72.192 25.2005 71.3157 25.4331 70.1661 25.4331H66.6192V20.0355H70.0713C71.2502 20.0355 72.1536 20.2614 72.7814 20.7131C73.0871 20.9426 73.3308 21.2446 73.4905 21.5918C73.6502 21.9391 73.7209 22.3207 73.6961 22.7021C73.718 23.0882 73.6477 23.4739 73.491 23.8275C73.3343 24.181 73.0957 24.4921 72.795 24.7351Z" fill="#010101"/>
<path d="M92.66 21.5126C92.6677 22.0639 92.5783 22.6121 92.3958 23.1323C92.2329 23.6029 91.9653 24.0304 91.6132 24.3826C91.2611 24.7348 90.8337 25.0024 90.3632 25.1653C89.8195 25.3579 89.2459 25.452 88.6693 25.4431C88.0926 25.4531 87.5188 25.3589 86.9755 25.1653C86.5049 25.0024 86.0775 24.7348 85.7254 24.3826C85.3733 24.0304 85.1057 23.6029 84.9428 23.1323C84.7603 22.6121 84.6709 22.0639 84.6786 21.5126V9.46362H80.7048V21.9192C80.6908 22.9079 80.8823 23.8887 81.2672 24.7994C81.6287 25.65 82.1722 26.411 82.8594 27.0289C83.5913 27.6706 84.4451 28.1581 85.3697 28.4622C87.5161 29.1399 89.8191 29.1399 91.9655 28.4622C92.8911 28.1563 93.7458 27.6677 94.4792 27.0255C95.1705 26.4097 95.7166 25.6482 96.0782 24.796C96.4631 23.8853 96.6546 22.9045 96.6406 21.9159V9.46362H92.66V21.5126Z" fill="#010101"/>
<path d="M112.15 9.46362L107.973 17.4263H107.736L103.545 9.46362H99.2363L105.866 21.4855V28.4859H109.843V21.4855L116.459 9.46362H112.15Z" fill="#010101"/>
<path d="M114.976 22.6072H128.974L130.19 19.0088H116.192L114.976 22.6072Z" fill="#010101"/>
<path d="M130.833 28.486H134.83L136.636 23.949H142.622L144.401 28.486H148.72L139.641 8.97583L130.833 28.486ZM137.832 20.8792L139.638 16.3692L141.443 20.8792H137.832Z" fill="#010101"/>
<path d="M164.012 19.2832C163.518 18.8111 162.945 18.4302 162.318 18.1582C161.525 17.8136 160.697 17.5546 159.848 17.3857L157.555 16.8978C156.701 16.7632 155.884 16.459 155.15 16.0032C154.917 15.8445 154.728 15.6304 154.599 15.3801C154.47 15.1299 154.405 14.8514 154.411 14.57C154.406 14.2287 154.487 13.8918 154.648 13.5907C154.813 13.2911 155.045 13.0336 155.326 12.8385C155.642 12.6192 155.996 12.4585 156.369 12.3641C156.811 12.2481 157.267 12.1922 157.724 12.1981C158.177 12.1942 158.627 12.2547 159.062 12.3777C159.442 12.4822 159.8 12.6507 160.123 12.8758C160.421 13.089 160.674 13.3583 160.868 13.6687C161.061 13.9768 161.182 14.3241 161.224 14.6852H164.95C164.933 13.8774 164.73 13.0844 164.357 12.3675C163.987 11.6624 163.471 11.0443 162.843 10.5548C162.162 10.0387 161.395 9.64746 160.577 9.39933C159.642 9.10954 158.669 8.96666 157.69 8.97578C156.676 8.96392 155.667 9.10674 154.696 9.39933C153.861 9.64735 153.083 10.0572 152.406 10.6056C151.782 11.1144 151.28 11.7556 150.935 12.4827C150.581 13.2419 150.403 14.0712 150.414 14.9088C150.414 17.807 152.136 19.6141 155.58 20.3302L158.06 20.8588C158.57 20.9675 159.071 21.1124 159.56 21.2925C159.921 21.4203 160.263 21.5958 160.577 21.8143C160.821 21.9909 161.02 22.2232 161.156 22.492C161.28 22.7461 161.343 23.0258 161.339 23.3086C161.342 23.6557 161.252 23.9974 161.078 24.298C160.893 24.6044 160.643 24.8669 160.346 25.0671C160.001 25.2907 159.621 25.4545 159.222 25.5517C158.757 25.674 158.279 25.7332 157.799 25.7279C157.28 25.7335 156.762 25.6743 156.257 25.5517C155.826 25.4484 155.415 25.2768 155.038 25.0434C154.705 24.8406 154.42 24.5691 154.201 24.2471C153.989 23.9353 153.857 23.5755 153.818 23.2001H149.983C150.003 24.0359 150.213 24.8563 150.597 25.5991C150.97 26.3129 151.499 26.9336 152.145 27.4153C152.857 27.9438 153.661 28.3356 154.516 28.5707C155.52 28.8498 156.557 28.9855 157.599 28.9739C158.687 28.9874 159.771 28.8424 160.817 28.5436C161.696 28.294 162.518 27.8776 163.239 27.317C163.897 26.7991 164.424 26.1341 164.777 25.3755C165.146 24.564 165.331 23.6813 165.32 22.7901C165.33 22.1183 165.224 21.4498 165.004 20.8147C164.796 20.2368 164.46 19.7134 164.022 19.2832" fill="#010101"/>
<path d="M173.047 9.46362H169.066V28.4859H173.047V9.46362Z" fill="#010101"/>
<path d="M190.124 22.0243C190.038 22.5279 189.86 23.0114 189.599 23.4508C189.349 23.8634 189.028 24.2283 188.65 24.5283C188.259 24.8294 187.817 25.0588 187.346 25.206C186.831 25.3719 186.292 25.4542 185.751 25.45C185.047 25.462 184.35 25.3064 183.718 24.9959C183.118 24.693 182.597 24.2559 182.193 23.7185C181.75 23.1073 181.427 22.4174 181.242 21.6855C181.005 20.8018 180.891 19.8897 180.903 18.9748C180.89 18.0599 181.004 17.1477 181.242 16.2641C181.435 15.5322 181.764 14.8427 182.21 14.2311C182.61 13.6855 183.134 13.2429 183.738 12.9401C184.366 12.6351 185.056 12.4819 185.754 12.4929C186.292 12.4883 186.827 12.5754 187.336 12.7504C187.814 12.9124 188.258 13.1604 188.647 13.4823C189.033 13.8019 189.357 14.1901 189.602 14.6275C189.862 15.0904 190.04 15.5948 190.127 16.1184H194.003C193.945 15.1217 193.681 14.1478 193.227 13.2586C192.788 12.4 192.187 11.6339 191.459 11.002C190.705 10.3561 189.839 9.85425 188.904 9.52128C187.894 9.1593 186.827 8.97808 185.754 8.98592C184.479 8.96125 183.212 9.19166 182.027 9.66359C180.949 10.1042 179.985 10.7844 179.209 11.6526C178.409 12.5681 177.806 13.6384 177.437 14.797C177.004 16.1466 176.794 17.5576 176.814 18.9748C176.794 20.3917 177.004 21.8025 177.434 23.1527C177.802 24.3137 178.405 25.3864 179.206 26.3039C179.98 27.1686 180.94 27.8463 182.014 28.286C184.222 29.1432 186.66 29.209 188.911 28.4724C189.842 28.1589 190.707 27.6764 191.462 27.0493C192.203 26.4268 192.81 25.6605 193.246 24.7969C193.682 23.9332 193.938 22.99 194 22.0243H190.124Z" fill="#010101"/>
<path d="M63.2041 40.6299V35.9641H64.3661L65.6568 39.1017H65.7212L67.0153 35.9641H68.1637V40.6299H67.2558V37.5092H67.205L66.0193 40.3622H65.3688L64.1798 37.5092H64.1289V40.6299H63.2041Z" fill="#010101"/>
<path d="M73.5127 40.6299V35.9641H74.4917V40.6299H73.5127Z" fill="#010101"/>
<path d="M79.8516 40.6299V35.9641H80.668L82.8158 38.8713H82.8734V35.9641H83.8084V40.6299H82.9987L80.8442 37.7091H80.7866V40.6299H79.8516Z" fill="#010101"/>
<path d="M89.1709 40.6299V35.9641H90.1466V40.6299H89.1709Z" fill="#010101"/>
<path d="M95.5098 40.6299V35.9641H96.3228L98.4706 38.8713H98.5282V35.9641H99.4632V40.6299H98.6536L96.5024 37.7091H96.4414V40.6299H95.5098Z" fill="#010101"/>
<path d="M108.779 39.5694C108.69 39.8091 108.55 40.0265 108.369 40.2064C108.182 40.3861 107.959 40.5236 107.715 40.6096C107.439 40.7081 107.147 40.7563 106.854 40.7519C106.534 40.7567 106.217 40.698 105.919 40.5791C105.652 40.4718 105.413 40.3063 105.218 40.0946C105.018 39.8699 104.866 39.6071 104.771 39.322C104.666 38.9934 104.615 38.6503 104.618 38.3055C104.614 37.9606 104.665 37.6173 104.771 37.289C104.865 37.0041 105.016 36.7413 105.215 36.5165C105.409 36.3048 105.647 36.1383 105.913 36.0285C106.205 35.9124 106.516 35.8548 106.831 35.8591C107.091 35.8561 107.351 35.895 107.6 35.9743C107.825 36.0482 108.035 36.1631 108.22 36.3132C108.398 36.4515 108.547 36.6229 108.66 36.818C108.776 37.0278 108.851 37.2578 108.88 37.4957H107.911C107.848 37.2725 107.711 37.0776 107.522 36.9434C107.321 36.8118 107.084 36.7445 106.844 36.7503C106.669 36.7467 106.495 36.7838 106.336 36.8587C106.186 36.931 106.055 37.0378 105.953 37.1704C105.844 37.3022 105.757 37.451 105.696 37.6109C105.638 37.832 105.61 38.06 105.614 38.2886C105.611 38.5173 105.639 38.7455 105.699 38.9662C105.75 39.1489 105.835 39.3202 105.95 39.4711C106.054 39.6079 106.19 39.7172 106.346 39.7896C106.509 39.8659 106.688 39.9042 106.868 39.9014C107.017 39.9023 107.166 39.8794 107.308 39.8337C107.432 39.7903 107.547 39.7249 107.647 39.6405C107.744 39.5605 107.821 39.4597 107.874 39.3457C107.932 39.2251 107.963 39.0933 107.966 38.9595V38.8748H106.949V38.1429H108.911V38.7358C108.918 39.0195 108.874 39.3021 108.779 39.5694Z" fill="#010101"/>
<path d="M123.126 40.6299H120.033V35.9641H123.126V36.7976H121.009V37.8887H123.004V38.6612H121.009V39.7964H123.126V40.6299Z" fill="#010101"/>
<path d="M131.565 41.0873L131.243 40.6265C130.978 40.7111 130.701 40.7534 130.423 40.7519C130.104 40.7567 129.788 40.698 129.492 40.5791C129.222 40.4728 128.98 40.3072 128.784 40.0945C128.581 39.8714 128.427 39.6082 128.333 39.322C128.225 38.9941 128.172 38.6506 128.177 38.3055C128.172 37.96 128.225 37.6162 128.336 37.289C128.432 37.0031 128.585 36.7401 128.787 36.5164C128.982 36.3016 129.225 36.1347 129.495 36.0285C130.093 35.8027 130.753 35.8027 131.351 36.0285C131.621 36.1365 131.863 36.3031 132.059 36.5164C132.259 36.7411 132.411 37.0039 132.507 37.289C132.724 37.9867 132.714 38.7358 132.476 39.427C132.362 39.7322 132.175 40.0046 131.931 40.2199L132.51 41.1009L131.565 41.0873ZM130.427 39.8946C130.483 39.8998 130.54 39.8998 130.596 39.8946C130.652 39.8877 130.707 39.8776 130.762 39.8641L130.233 39.0882H131.104L131.321 39.3491C131.435 39.2235 131.519 39.0742 131.568 38.912C131.629 38.7169 131.659 38.5133 131.656 38.3089C131.661 38.0796 131.63 37.851 131.565 37.6312C131.515 37.4493 131.43 37.279 131.314 37.1297C131.211 36.9933 131.076 36.884 130.921 36.8112C130.761 36.7353 130.586 36.697 130.41 36.6994C130.232 36.6971 130.056 36.7353 129.895 36.8112C129.742 36.8866 129.607 36.9955 129.502 37.1297C129.388 37.2798 129.303 37.4499 129.251 37.6312C129.134 38.065 129.134 38.5222 129.251 38.956C129.303 39.1384 129.388 39.3096 129.502 39.4609C129.607 39.5957 129.741 39.7047 129.895 39.7794C130.06 39.8593 130.243 39.8987 130.427 39.8946Z" fill="#010101"/>
<path d="M138.804 38.9188C138.803 39.0547 138.825 39.1898 138.868 39.3186C138.909 39.4316 138.974 39.5345 139.058 39.6202C139.146 39.7067 139.251 39.7736 139.366 39.8167C139.637 39.9071 139.929 39.9071 140.2 39.8167C140.315 39.7736 140.42 39.7067 140.508 39.6202C140.592 39.5345 140.657 39.4316 140.698 39.3186C140.741 39.1898 140.763 39.0547 140.762 38.9188V35.9641H141.738V39.0136C141.74 39.2556 141.693 39.4956 141.599 39.7184C141.511 39.9286 141.376 40.1163 141.206 40.2673C141.026 40.4197 140.817 40.5348 140.593 40.6062C140.066 40.7734 139.5 40.7734 138.973 40.6062C138.748 40.5348 138.538 40.4197 138.357 40.2673C138.188 40.1152 138.055 39.9278 137.967 39.7184C137.873 39.4956 137.825 39.2556 137.828 39.0136V35.9641H138.804V38.9188Z" fill="#010101"/>
<path d="M147.114 40.6299V35.9641H148.09V40.6299H147.114Z" fill="#010101"/>
<path d="M155.397 35.9642C155.622 35.9623 155.844 36.0014 156.054 36.0794C156.247 36.1556 156.421 36.271 156.566 36.4182C156.713 36.562 156.829 36.7352 156.905 36.9265C156.986 37.1429 157.025 37.373 157.02 37.6041C157.024 37.8289 156.984 38.0522 156.901 38.2615C156.826 38.4522 156.711 38.6244 156.563 38.7664C156.413 38.9145 156.234 39.0299 156.038 39.1052C155.82 39.1833 155.591 39.2223 155.36 39.2204H154.439V40.6672H153.463V35.9642H155.397ZM154.428 38.3902H155.136C155.372 38.4043 155.605 38.3307 155.79 38.1836C155.871 38.1062 155.934 38.0121 155.974 37.9079C156.014 37.8037 156.031 37.6919 156.024 37.5804C156.032 37.4687 156.015 37.3566 155.975 37.2519C155.935 37.1472 155.874 37.0524 155.794 36.9739C155.609 36.8253 155.376 36.7515 155.14 36.7672H154.428V38.3902Z" fill="#010101"/>
<path d="M162.152 40.6299V35.9641H163.287L164.578 39.1017H164.642L165.936 35.9641H167.085V40.6299H166.18V37.5092H166.126L164.94 40.3622H164.304L163.114 37.5092H163.064V40.6299H162.152Z" fill="#010101"/>
<path d="M175.551 40.6299H172.461V35.9641H175.551V36.7976H173.45V37.8887H175.446V38.6612H173.45V39.7964H175.564L175.551 40.6299Z" fill="#010101"/>
<path d="M180.809 40.6299V35.9641H181.625L183.773 38.8713H183.83V35.9641H184.765V40.6299H183.952L181.798 37.7091H181.74V40.6299H180.809Z" fill="#010101"/>
<path d="M191.256 40.6299V36.7976H189.856V35.9641H193.634V36.7976H192.235V40.6299H191.256Z" fill="#010101"/>
</svg>
