<svg width="84" height="84" viewBox="0 0 84 84" fill="none" xmlns="http://www.w3.org/2000/svg">
<path d="M57.75 26.25L26.25 57.75" stroke="white" stroke-width="3" stroke-linecap="round" stroke-linejoin="round"/>
<path d="M29.625 35.25C32.7316 35.25 35.25 32.7316 35.25 29.625C35.25 26.5184 32.7316 24 29.625 24C26.5184 24 24 26.5184 24 29.625C24 32.7316 26.5184 35.25 29.625 35.25Z" stroke="white" stroke-width="3" stroke-linecap="round" stroke-linejoin="round"/>
<path d="M54.375 60C57.4816 60 60 57.4816 60 54.375C60 51.2684 57.4816 48.75 54.375 48.75C51.2684 48.75 48.75 51.2684 48.75 54.375C48.75 57.4816 51.2684 60 54.375 60Z" stroke="white" stroke-width="3" stroke-linecap="round" stroke-linejoin="round"/>
<circle cx="42" cy="42" r="40.5" stroke="white" stroke-width="3"/>
</svg>
