<svg width="13" height="13" viewBox="0 0 13 13" fill="none" xmlns="http://www.w3.org/2000/svg">
<g clip-path="url(#clip0_19_63)">
<path d="M12.8607 9.85882C12.3768 8.94399 10.6963 7.95204 10.6223 7.90866C10.4064 7.78575 10.181 7.72068 9.97016 7.72068C9.65662 7.72068 9.39995 7.86431 9.24451 8.12555C8.99869 8.41957 8.69382 8.76324 8.61984 8.8165C8.04722 9.20499 7.59896 9.16089 7.10298 8.66491L4.33486 5.89655C3.84202 5.40371 3.79671 4.9499 4.18255 4.38042C4.23654 4.30595 4.5802 4.00085 4.87422 3.75479C5.06172 3.6432 5.19041 3.4774 5.24681 3.27399C5.32176 3.00335 5.26657 2.68499 5.08967 2.37482C5.04798 2.30349 4.05554 0.622756 3.14119 0.139069C2.97056 0.0486945 2.77825 0.000976562 2.58545 0.000976562C2.26781 0.000976562 1.96897 0.12485 1.74436 0.349221L1.1327 0.960637C0.165329 1.92777 -0.184843 3.02408 0.0913425 4.21895C0.321738 5.21476 0.993163 6.27444 2.0873 7.36833L5.6312 10.9122C7.01598 12.297 8.33618 12.9993 9.55516 12.9993C9.55516 12.9993 9.55515 12.9993 9.5554 12.9993C10.4519 12.9993 11.2877 12.6183 12.0389 11.8671L12.6503 11.2557C13.0219 10.8843 13.1063 10.3227 12.8607 9.85882Z" fill="#E84058"/>
</g>
<defs>
<clipPath id="clip0_19_63">
<rect width="13" height="13" fill="white"/>
</clipPath>
</defs>
</svg>
