<svg width="13" height="13" viewBox="0 0 13 13" fill="none" xmlns="http://www.w3.org/2000/svg">
<g clip-path="url(#clip0_15_2)">
<path d="M9.44531 11.4108L8.88281 7.96219L11.2734 5.5293L7.97656 5.02142L6.5 1.89225L5.02344 5.02142L1.72656 5.5293L4.11719 7.96219L3.54688 11.4108L6.5 9.78072L9.44531 11.4108ZM12.5625 4.661C12.8542 4.71014 13 4.83575 13 5.03781C13 5.15795 12.9323 5.28901 12.7969 5.431L9.96094 8.33081L10.6328 12.4266C10.638 12.4648 10.6406 12.5194 10.6406 12.5904C10.6406 12.8635 10.5339 13 10.3203 13C10.2214 13 10.1172 12.9672 10.0078 12.9017L6.5 10.9685L2.99219 12.9017C2.8776 12.9672 2.77344 13 2.67969 13C2.57031 13 2.48828 12.9604 2.43359 12.8812C2.37891 12.802 2.35156 12.7051 2.35156 12.5904C2.35156 12.5577 2.35677 12.503 2.36719 12.4266L3.03906 8.33081L0.195312 5.431C0.0651042 5.28355 0 5.15249 0 5.03781C0 4.83575 0.145833 4.71014 0.4375 4.661L4.35938 4.06301L6.11719 0.335854C6.21615 0.111951 6.34375 0 6.5 0C6.65625 0 6.78385 0.111951 6.88281 0.335854L8.64062 4.06301L12.5625 4.661Z" fill="white"/>
</g>
<defs>
<clipPath id="clip0_15_2">
<rect width="13" height="13" fill="white"/>
</clipPath>
</defs>
</svg>
