<svg width="32" height="32" viewBox="0 0 32 32" fill="none" xmlns="http://www.w3.org/2000/svg">
<circle cx="16" cy="16" r="16" fill="#E84058"/>
<g clip-path="url(#clip0_329_342)">
<path d="M22.6526 11.9631C22.1754 12.1745 21.6629 12.3174 21.124 12.3819C21.68 12.0492 22.096 11.5256 22.2943 10.9088C21.7719 11.2191 21.2002 11.4375 20.604 11.5545C20.2031 11.1264 19.6721 10.8427 19.0933 10.7473C18.5146 10.652 17.9206 10.7504 17.4036 11.0272C16.8865 11.304 16.4753 11.7438 16.2338 12.2783C15.9923 12.8128 15.934 13.4121 16.068 13.9831C15.0096 13.9299 13.9741 13.6548 13.0288 13.1756C12.0836 12.6964 11.2496 12.0237 10.5812 11.2014C10.3526 11.5956 10.2212 12.0528 10.2212 12.5396C10.2209 12.9779 10.3288 13.4095 10.5354 13.7961C10.7419 14.1826 11.0407 14.5122 11.4052 14.7556C10.9825 14.7422 10.5691 14.628 10.1994 14.4225V14.4568C10.1994 15.0715 10.412 15.6673 10.8013 16.1431C11.1905 16.6188 11.7323 16.9453 12.3349 17.0671C11.9428 17.1732 11.5316 17.1888 11.1326 17.1128C11.3026 17.6417 11.6337 18.1042 12.0797 18.4356C12.5256 18.767 13.064 18.9506 13.6194 18.9608C12.6765 19.701 11.512 20.1025 10.3132 20.1008C10.1008 20.1008 9.88864 20.0884 9.67773 20.0636C10.8946 20.846 12.3111 21.2613 13.7577 21.2596C18.6549 21.2596 21.332 17.2036 21.332 13.6859C21.332 13.5716 21.3292 13.4562 21.324 13.3419C21.8448 12.9653 22.2943 12.499 22.6514 11.9648L22.6526 11.9631Z" fill="white"/>
</g>
<defs>
<clipPath id="clip0_329_342">
<rect width="13.7143" height="13.7143" fill="white" transform="translate(9.14258 9.14258)"/>
</clipPath>
</defs>
</svg>
