<svg width="32" height="32" viewBox="0 0 32 32" fill="none" xmlns="http://www.w3.org/2000/svg">
<path d="M22.6693 28V25.3333C22.6693 23.9188 22.1074 22.5623 21.1072 21.5621C20.107 20.5619 18.7504 20 17.3359 20H6.66927C5.25478 20 3.89823 20.5619 2.89803 21.5621C1.89784 22.5623 1.33594 23.9188 1.33594 25.3333V28" stroke="#E84058" stroke-width="2" stroke-linecap="round" stroke-linejoin="round"/>
<path d="M11.9974 14.6667C14.9429 14.6667 17.3307 12.2789 17.3307 9.33333C17.3307 6.38781 14.9429 4 11.9974 4C9.05188 4 6.66406 6.38781 6.66406 9.33333C6.66406 12.2789 9.05188 14.6667 11.9974 14.6667Z" stroke="#E84058" stroke-width="2" stroke-linecap="round" stroke-linejoin="round"/>
<path d="M30.6641 27.9995V25.3329C30.6632 24.1512 30.2699 23.0032 29.5459 22.0693C28.8219 21.1353 27.8082 20.4683 26.6641 20.1729" stroke="#E84058" stroke-width="2" stroke-linecap="round" stroke-linejoin="round"/>
<path d="M21.3359 4.17285C22.4832 4.46659 23.5 5.13379 24.2261 6.06927C24.9523 7.00475 25.3464 8.15529 25.3464 9.33952C25.3464 10.5237 24.9523 11.6743 24.2261 12.6098C23.5 13.5453 22.4832 14.2125 21.3359 14.5062" stroke="#E84058" stroke-width="2" stroke-linecap="round" stroke-linejoin="round"/>
</svg>
