<svg width="32" height="32" viewBox="0 0 32 32" fill="none" xmlns="http://www.w3.org/2000/svg">
<circle cx="16" cy="16" r="16" fill="#E84058"/>
<g clip-path="url(#clip0_329_330)">
<path fill-rule="evenodd" clip-rule="evenodd" d="M21.9713 13.113C22.0661 12.801 21.9713 12.5713 21.517 12.5713H20.017C19.6353 12.5713 19.4593 12.7696 19.3639 12.9884C19.3639 12.9884 18.601 14.8147 17.5204 16.001C17.1707 16.345 17.0119 16.4541 16.821 16.4541C16.7256 16.4541 16.5821 16.345 16.5821 16.0324V13.113C16.5821 12.7381 16.477 12.5713 16.1593 12.5713H13.8004C13.5621 12.5713 13.4187 12.745 13.4187 12.9101C13.4187 13.265 13.9593 13.3473 14.0147 14.3461V16.5164C14.0147 16.9924 13.9273 17.0787 13.7364 17.0787C13.2279 17.0787 11.9907 15.2439 11.2564 13.1444C11.1141 12.7359 10.9701 12.5713 10.5867 12.5713H9.08557C8.657 12.5713 8.57129 12.7696 8.57129 12.9884C8.57129 13.3781 9.07986 15.3141 10.9399 17.8747C12.1799 19.6233 13.9256 20.5713 15.5159 20.5713C16.4696 20.5713 16.5873 20.361 16.5873 19.9981V18.6764C16.5873 18.2553 16.6776 18.1713 16.9799 18.1713C17.2027 18.1713 17.5839 18.281 18.4741 19.1239C19.4913 20.1233 19.6587 20.5713 20.2313 20.5713H21.7313C22.1599 20.5713 22.3747 20.361 22.2513 19.945C22.1153 19.5313 21.6296 18.9307 20.9856 18.2181C20.6359 17.8124 20.1113 17.3753 19.9519 17.1564C19.7296 16.8759 19.793 16.7507 19.9519 16.501C19.9519 16.501 21.7804 13.9719 21.9707 13.113H21.9713Z" fill="white"/>
</g>
<defs>
<clipPath id="clip0_329_330">
<rect width="13.7143" height="13.7143" fill="white" transform="translate(8.57129 9.71387)"/>
</clipPath>
</defs>
</svg>
